Coordinates
version=1
nRows=18
nColumns=22
inDegrees=yes

Units are S.I. units (second, meters, Newtons, ...)
If the header above contains a line with 'inDegrees', this indicates whether rotational values are in degrees (yes) or radians (no).

endheader
time	pelvis_tilt	pelvis_list	pelvis_rotation	pelvis_tx	pelvis_ty	pelvis_tz	hip_flexion_r	hip_adduction_r	hip_rotation_r	knee_angle_r	ankle_angle_r	subtalar_angle_r	hip_flexion_l	hip_adduction_l	hip_rotation_l	knee_angle_l	ankle_angle_l	subtalar_angle_l	lumbar_extension	lumbar_bending	lumbar_rotation
      3.72000000	     -1.87207793	      5.85487000	     12.97190387	     -0.17158606	      1.07000226	     -0.41712896	     21.37952527	     -1.05755223	      6.48867117	    -65.08564878	      6.17519121	     -0.80191492	      3.68026294	      3.57990432	     -1.66347737	    -13.62980523	     11.63157100	      2.56803152	     -6.16876309	     -7.01349515	     -6.24306573
      3.73000000	     -1.78826445	      5.68812332	     12.68890527	     -0.16475692	      1.07015215	     -0.41991911	     22.44487244	     -0.96658645	      5.76067745	    -64.66600887	      6.64086151	     -1.18646367	      3.00826844	      3.47167222	     -1.94360636	    -13.27842125	     11.85185109	      2.44332726	     -6.27419805	     -6.81663493	     -6.52774900
      3.74000000	     -1.72011077	      5.58971419	     12.40603003	     -0.15810536	      1.07020414	     -0.42269101	     23.45936123	     -0.96238805	      5.02335823	    -64.09050449	      7.20942884	     -1.25426769	      2.33109075	      3.44410680	     -2.27467056	    -12.89665318	     12.06752607	      2.38446289	     -6.39025258	     -6.69444472	     -6.80165949
      3.75000000	     -1.61874506	      5.38367788	     12.21347897	     -0.15117383	      1.07024361	     -0.42547092	     24.32909273	     -0.89221031	      4.12456760	    -63.27174284	      7.68850847	     -1.30205919	      1.67603151	      3.30096964	     -2.47138741	    -12.60629712	     12.37780910	      2.26996609	     -6.53019812	     -6.41885879	     -7.18024441
      3.76000000	     -1.53028407	      5.22108746	     11.97241178	     -0.14413383	      1.07004890	     -0.42808777	     25.14768998	     -0.85905448	      3.27195308	    -62.30190272	      8.04799027	     -1.60187048	      1.02345513	      3.19317547	     -2.76784217	    -12.33042219	     12.60892262	      2.06303124	     -6.61075370	     -6.21403785	     -7.51220366
      3.77000000	     -1.43332302	      5.12982992	     11.80256958	     -0.13735224	      1.06985500	     -0.43081204	     25.88986879	     -0.96037138	      2.31560061	    -61.18260686	      8.41614104	     -1.71972504	      0.35922375	      3.17627082	     -3.02789988	    -12.02315125	     12.90342998	      2.01103470	     -6.80360227	     -6.04105031	     -7.82568055
      3.78000000	     -1.34644876	      5.05070122	     11.62957415	     -0.13022863	      1.06963640	     -0.43341553	     26.52248055	     -1.07808663	      1.38622025	    -59.86657933	      8.63183487	     -1.86885852	     -0.37714316	      3.17512079	     -3.12931697	    -11.59454649	     13.11380371	      1.92750369	     -6.90187338	     -5.93469244	     -8.15327163
      3.79000000	     -1.22064688	      4.98316260	     11.54756833	     -0.12308124	      1.06940155	     -0.43613405	     27.04366187	     -1.31672902	      0.20198982	    -58.40314511	      9.41509287	     -2.80625661	     -1.07550456	      3.15301110	     -3.19318071	    -11.36688435	     13.32581747	      1.89732564	     -7.06189159	     -5.78843354	     -8.55840054
      3.80000000	     -1.27667690	      4.93451179	     11.41546937	     -0.11565509	      1.06873168	     -0.43879365	     27.66062399	     -1.61102061	     -0.94358951	    -56.86908656	      9.41567841	     -2.01372419	     -1.62530343	      3.20493637	     -3.37293038	    -11.07159378	     13.69353012	      1.92293269	     -6.97905937	     -5.70625842	     -8.84691724
      3.81000000	     -1.21176212	      4.93657162	     11.33633582	     -0.10860465	      1.06809716	     -0.44151548	     28.08943097	     -2.02064795	     -2.28178099	    -55.14998265	      9.71634663	     -2.09868892	     -2.21546240	      3.28956070	     -3.40848562	    -10.94194278	     13.95764017	      1.83626588	     -7.10257092	     -5.62670303	     -9.10176334
      3.82000000	     -1.09025194	      4.93157687	     11.24560382	     -0.10136524	      1.06752530	     -0.44417349	     28.35720734	     -2.42038290	     -3.68727471	    -53.25196000	      9.97662817	     -2.42180598	     -2.86215785	      3.33686378	     -3.54950041	    -10.79852982	     14.18184070	      1.75316119	     -7.28225130	     -5.52203143	     -9.37389325
      3.83000000	     -1.04602703	      4.88521108	     11.21952695	     -0.09368567	      1.06668369	     -0.44676956	     28.56984057	     -2.80884846	     -5.21999269	    -51.24683372	     10.21841905	     -2.65120363	     -3.35315236	      3.35122953	     -3.67202846	    -10.84105817	     14.64948336	      1.84455972	     -7.30538949	     -5.38359048	     -9.66086609
      3.84000000	     -0.98345827	      4.86412565	     11.17790147	     -0.08631078	      1.06582969	     -0.44912697	     28.73588537	     -3.14954138	     -6.67593907	    -49.16620740	     10.62607533	     -2.27796659	     -3.89017472	      3.37853623	     -3.68909855	    -10.80696057	     14.98041267	      1.78878223	     -7.40071928	     -5.27550874	     -9.97584088
      3.85000000	     -0.92087955	      4.80395016	     11.14401991	     -0.07856790	      1.06480292	     -0.45147345	     28.78620893	     -3.48095255	     -8.30102090	    -46.94855732	     10.86692479	     -2.22032953	     -4.42900936	      3.36561095	     -3.66320534	    -10.79860436	     15.31907713	      1.60424015	     -7.41567225	     -5.13976856	    -10.18820490
      3.86000000	     -0.87861375	      4.74072636	     11.10525927	     -0.07082819	      1.06379869	     -0.45365078	     28.82933976	     -3.79485261	     -9.96164933	    -44.72213739	     10.54871284	     -2.93007087	     -4.89761839	      3.33945406	     -3.73867129	    -10.86328474	     15.75374937	      1.63099858	     -7.41775368	     -5.01154929	    -10.41143487
      3.87000000	     -0.95773670	      4.61336107	     11.08095159	     -0.06295059	      1.06244263	     -0.45556944	     28.87678026	     -3.98937034	    -11.60984225	    -42.24302519	     10.47209449	     -2.99394947	     -5.16003132	      3.25372066	     -3.82254621	    -11.05299677	     16.21462452	      1.54637407	     -7.27419500	     -4.83888179	    -10.54570637
      3.88000000	     -0.80341264	      4.55766348	     11.08521146	     -0.05489668	      1.06144084	     -0.45758560	     28.52727237	     -4.17611401	    -13.19571360	    -39.66074649	     10.46333171	     -3.36049575	     -5.78299742	      3.19096517	     -3.79003594	    -11.08547718	     16.52187813	      1.50848177	     -7.41927735	     -4.68778496	    -10.73411241
      3.89000000	     -0.74817025	      4.49033585	     10.96987837	     -0.04684363	      1.06009014	     -0.45917386	     28.25416824	     -4.27471540	    -14.79068843	    -36.90059677	     10.74533123	     -3.16512161	     -6.29164767	      3.15786202	     -3.78109014	    -11.15491980	     16.75729190	      1.15979741	     -7.45903558	     -4.55947467	    -10.77382995
